<svg width="478" height="345" viewBox="0 0 478 345" fill="none" xmlns="http://www.w3.org/2000/svg">
<path d="M477.38 150V197.32H427.22V256H378.48V197.32H328.32V150H378.48V91.32H427.22V150H477.38Z" fill="black"/>
<path d="M248.18 110.25L275.66 117.41L294.14 138.81L304.54 174.32L307.8 223.81L304 273.16L291.59 310.22L269.07 333.53L234.93 341.63L206.18 335.52L185.95 318.32L173.17 291.72L166.78 257.4L216.94 250.76L219.45 269.87L222.85 283.3L228.38 291.23L237.28 293.83L247.9 289.63L253.73 276.91L256.18 255.5L256.68 225.22L255.73 195.16L252.3 174.24L245.5 162.01L234.44 158.03L226.12 159.61L219.35 164.3L213.74 172L208.88 182.63L168.64 177.43L175.28 5.19H301.62V52.51H220.23L216.91 123.03L222.39 117.84L229.16 113.8L237.61 111.18L248.15 110.25H248.18Z" fill="black"/>
<path d="M74.29 0L104 7.23L125.99 28.75L139.64 64.28L144.33 113.57L136.87 198.35L116.59 262.33L86.64 309.54L50.17 344.02L19.41 305.22L47.04 282.07L68.68 254.53L84.02 223.71L92.75 190.71L86.44 198.26L78.85 204.26L69.93 208.22L59.63 209.65L33.75 202.26L15.1 181.43L3.81 149.16L0 107.41L4.89 62.68L19.23 28.86L42.52 7.47L74.29 0ZM72.4 163.25L82.79 159.44L89.5 148.05L93.1 129.11L94.17 102.68L92.71 77.79L88.55 60.39L81.99 50.18L73.35 46.85L63.49 50.41L56.55 61.16L52.45 79.19L51.1 104.58L52.3 128.92L56.07 147.4L62.68 159.14L72.4 163.25Z" fill="black"/>
</svg>
