<svg width="478" height="345" viewBox="0 0 478 345" fill="none" xmlns="http://www.w3.org/2000/svg">
<path fill-rule="evenodd" clip-rule="evenodd" d="M104 7.23047L125.99 28.75L139.64 64.2803L144.33 113.57L140.455 157.612H169.403L175.28 5.19043H301.62V52.5098H220.23L216.91 123.03L222.39 117.84L229.16 113.8L237.61 111.18L248.15 110.25H248.18L275.66 117.41L294.14 138.81L299.646 157.612H328.32V150H378.48V91.3203H427.22V150H477.38V197.32H427.22V256H378.48V197.32H328.32V172.01H303.863L304.54 174.32L307.8 223.81L304 273.16L291.59 310.22L269.07 333.53L234.93 341.63L206.18 335.52L185.95 318.32L173.17 291.72L166.78 257.4L216.94 250.76L219.45 269.87L222.85 283.3L228.38 291.23L237.28 293.83L247.9 289.63L253.73 276.91L256.18 255.5L256.68 225.22L255.73 195.16L252.3 174.24L251.06 172.01H213.735L208.88 182.63L168.64 177.43L168.849 172.01H139.188L136.87 198.35L116.59 262.33L86.6396 309.54L50.1699 344.02L19.4102 305.22L47.04 282.07L68.6797 254.53L84.0195 223.71L92.75 190.71L86.4404 198.26L78.8496 204.26L69.9297 208.22L59.6299 209.65L33.75 202.26L15.0996 181.43L3.80957 149.16L0 107.41L4.88965 62.6797L19.2305 28.8604L42.5195 7.46973L74.29 0L104 7.23047Z" fill="black"/>
</svg>
