<svg width="478" height="344" viewBox="0 0 478 344" fill="none" xmlns="http://www.w3.org/2000/svg">
<g opacity="0.5">
<path d="M477.375 150.001V197.32H427.217V255.996H378.478V197.32H328.32V150.001H378.478V91.3257H427.217V150.001H477.375Z" fill="black"/>
<path d="M248.185 110.253C291.245 110.253 307.807 148.582 307.807 223.819C307.807 297.164 288.879 341.644 234.935 341.644C190.455 341.644 171.528 307.574 166.796 257.416L216.954 250.791C220.266 280.129 222.632 293.851 237.301 293.851C255.283 293.851 256.702 271.611 256.702 225.239C256.702 178.866 252.443 158.046 234.462 158.046C222.159 158.046 215.061 166.563 208.91 182.652L168.689 177.446L175.313 5.20508H301.655V52.5241H220.266L216.954 123.03C223.579 115.458 232.569 110.253 248.185 110.253Z" fill="black"/>
<path d="M74.2909 0C118.771 0 144.323 38.8016 144.323 113.566C144.323 242.274 101.736 304.735 50.1582 344.009L19.4008 305.208C60.0952 277.763 85.6475 235.649 92.7453 190.696C85.1743 201.579 74.2909 209.623 59.622 209.623C20.3472 209.623 0 168.456 0 107.414C0 41.1676 26.4987 0 74.2909 0ZM72.3981 163.251C88.9598 163.251 94.1649 142.904 94.1649 102.682C94.1649 64.3539 86.1207 46.8458 73.3445 46.8458C58.2024 46.8458 51.1046 65.7735 51.1046 104.575C51.1046 140.538 57.256 163.251 72.3981 163.251Z" fill="black"/>
</g>
</svg>
