<svg width="535" height="318" viewBox="0 0 535 318" fill="none" xmlns="http://www.w3.org/2000/svg">
<path d="M469.791 66.4856C475.121 67.8841 476.976 67.949 482.427 67.6289C485.933 67.4226 491.112 69.552 494.35 66.8887C496.525 65.0953 495.217 63.0187 495.413 60.605L495.632 60.3283C495.937 59.944 496.442 60.053 497.181 60.2502C499.959 60.99 500.317 57.0733 503.276 56.5594C504.403 56.9802 504.098 56.6955 504.758 57.573L504.667 57.9368C504.011 58.7626 502.036 59.6695 501.003 60.2166V61.1578C502.341 62.4346 503.091 61.3087 504.196 62.0526C505.259 62.7653 504.758 63.8464 506.465 64.7118C507.66 63.7827 507.992 61.5436 509.134 59.7193L509.594 59.7517C509.933 60.7841 510.061 61.3237 510.336 62.3211C510.638 63.4316 511.403 64.3588 512.436 64.8653C513.654 65.4765 514.419 65.2242 515.614 64.8094C517.815 62.6058 514.943 58.1231 516.142 54.6683C517.235 53.4794 519.489 52.8576 521.061 52.6234C521.419 54.0005 521.509 55.1159 522.81 55.7068C526.221 54.5986 525.2 50.4741 526.99 49.3613C531.842 51.4047 526.538 53.6932 526.319 56.7226C526.176 58.7521 526.123 60.6571 525.92 62.7005C530.096 67.3668 525.422 66.3845 533.44 69.6771L533.659 70.9324C532.505 70.8883 531.631 70.7039 530.707 71.3137C530.703 73.1742 533.297 74.8062 534.725 75.9743C533.489 78.3662 532.991 77.471 533.402 80.1101C532.351 81.3515 529.972 81.7033 528.762 82.6584C526.764 84.2309 524.932 88.117 522.354 88.5672C521.589 88.3037 520.755 87.8285 520.141 88.2064C518.456 89.2384 517.107 92.4892 515.84 93.5292C514.351 94.7502 511.377 96.2434 509.571 97.2408C505.707 105.255 510.272 102.212 512.142 103.28C509.639 105.304 509.797 105.861 508.61 108.666C508.158 109.738 506.401 108.575 505.753 109.374C503.201 112.517 499.45 122.337 500.686 126.094L501.154 126.083C503.28 122.105 501.855 120.155 505.082 116.781C504.29 127.843 505.308 124.496 498.67 132.633C497.023 134.652 496.378 142.759 493.068 147.454C494.395 148.29 495.763 149.186 497.128 149.945C496.427 152.744 496.261 153.87 496.287 156.796C497.641 158.339 499.982 160.47 500.313 162.171L499.993 163.041C497.874 163.815 498.349 161.167 496.966 160.776C495.42 162.439 491.847 166.331 491.119 168.329C491.206 169.389 491.127 169.89 491.821 170.673C492.563 170.757 492.706 170.818 493.426 170.553L493.965 170.973C493.049 172.792 492.318 173.701 492.748 175.591C493.645 176.458 494.787 176.655 495.986 176.985C495.997 178.319 493.555 179.711 492.503 180.407L487.633 180.619C486.309 182.087 485.39 183.21 483.765 184.376C481.858 184.133 481.944 182.027 480.127 183.292C480.052 185.161 482.057 186.597 481.899 187.907C481.805 188.667 480.893 191.631 480.621 192.522C479.185 192.752 477.587 193.047 476.158 193.225C474.665 194.356 471.71 196.187 471.646 198.174C471.601 199.605 473.192 201.297 471.484 202.469C467.206 205.409 465.513 205.925 463.636 211.059C462.644 212.201 459.885 213.496 458.954 214.461C455.343 218.193 452.191 222.686 449.202 226.911C448.241 228.273 449.696 233.418 448.987 235.529C447.359 237.028 445.697 235.462 444.091 234.383C438.519 237.41 434.723 234.178 432.232 240.904C430.905 244.495 435.711 247.218 438.199 249.312C439.198 248.098 441.29 244.622 442.372 243.068C442.225 241.713 441.991 241.332 441.429 240.14C442.557 238.897 448.267 237.463 448.87 238.609C450.642 241.978 451.471 246.438 452.889 250.043C454.253 253.505 456.896 256.471 458.769 259.657C460.288 262.243 458.392 263.259 461.676 264.379C464.262 265.26 464.19 270.367 465.377 272.474C466.267 274.056 467.413 275.586 468.438 277.098C472.897 283.056 476.045 288.668 475.857 296.37C475.793 299.06 475.706 304.901 472.196 306.17C471.703 306.349 471.292 306.06 470.794 305.864C467.82 302.661 469.995 295.862 470.771 291.955L470.685 291.764C469.475 289.065 469.546 287.624 469.426 284.689C467.394 284.274 466.889 286.787 465.064 284.633C464.19 283.598 463.104 284.954 461.532 284.546C460.929 283.38 461.023 283.889 461.137 282.624C462.332 280.92 466.158 280.741 465.66 279.029C465.151 277.286 459.621 268.831 458.634 268.194C458.098 271.247 458.174 271.816 455.641 273.575C455.139 273.921 454.63 274.254 454.11 274.571C454.913 275.247 456.783 276.571 457.001 277.384L456.794 277.486C456.116 277.826 455.95 277.854 455.509 278.489C456.357 280.067 457.672 281.975 457.887 283.619L457.518 284.497C456.108 284.495 454.186 282.753 453.006 281.826C452.274 284.106 450.849 287.33 451.799 289.467C454.344 291.268 462.267 287.309 466.452 289.022C466.874 290.044 466.87 289.608 466.467 290.651C464.054 292.325 459.199 289.719 456.934 291.884L456.817 292.641C457.175 293.037 458.385 294.255 458.355 294.735C458.279 296.062 456.602 298.677 455.855 299.869C454.687 298.449 451.837 295.986 451.758 295.884C448.184 291.322 441.912 285.822 439.793 280.676C438.304 277.056 438.813 263.944 437.773 259.575C437.611 258.88 434.252 259.545 433.374 257.39C434.328 255.202 436.084 255.265 436.216 253.664C434.984 252.958 431.617 253.136 429.989 253.104C429.529 251.809 429.001 250.409 428.59 249.11C427.128 248.119 425.42 247.025 424.026 245.971C422.028 246.972 421.458 247.135 419.268 247.62C418.545 248.765 417.629 250.492 416.494 251.102C414.952 250.942 414.798 250.255 414.04 248.86C412.464 249.302 408.446 250.724 407.081 249.848C407.285 249.051 407.828 248.634 408.416 248.041L408.209 247.52C406.98 247.055 406.452 246.75 405.129 246.99C402.577 248.711 403.357 252.593 403.489 255.402C392.508 251.966 390.239 251.015 378.931 254.643C378.233 254.418 373.868 252.822 373.514 252.943C368.474 254.657 355.22 255.426 351.421 258.503C351.055 259.88 351.436 261.939 351.816 263.299L351.387 264.44C349.083 263.454 346.859 262.458 344.481 261.675C345.156 262.538 349.378 268.991 349.287 268.931C350.162 268.952 351.862 268.841 352.472 269.215C351.639 270.289 349.792 271.65 348.605 272.369C348.081 270.864 347.606 268.952 346.449 267.943C344.564 267.519 343.866 268.979 342.8 270.365C341.714 267.583 341.51 266.465 338.672 265.049C336.629 264.029 330.692 264.241 328.547 264.721C327.82 264.439 327.096 264.147 326.376 263.847C325.298 264.792 324.107 266.066 322.753 266.3C321.189 265.344 322.41 262.942 322.942 261.45C317.389 260.595 314.619 258.53 313.228 265.003C312.334 264.945 310.981 262.916 310.382 262.121C304.844 269.766 297.954 258.603 298.312 271.643C295.711 272.472 293.766 272.752 291.15 273.333C289.943 273.601 289.57 275.792 288.409 276.297C281.145 279.466 280.474 277.59 274.417 283.299C271.785 282.725 270.451 282.503 268.057 281.124C266.557 280.487 266.666 280.245 265.332 280.513C264.955 282.067 265.818 282.61 266.998 283.443L268.291 283.665L268.461 283.696C269.298 284.444 269.953 288.598 270.27 290.037C266.938 290.633 267.722 290.72 265.521 292.839C263.779 294.515 262.984 292.39 260.771 292.149C259.494 292.548 258.451 294.377 257.427 295.595C256.28 294.901 257.25 294.305 256.24 292.612C255.281 292.854 255.221 292.855 254.228 292.79C253.067 292.145 252.622 290.479 252.111 289.18C254.168 288.743 254.873 288.887 255.711 286.899C255.716 285.438 254.867 283.888 254.251 282.523C248.934 283.135 242.424 285.481 237.166 285.358C235.273 284.503 232.713 278.934 233.28 277.033C234.771 276.348 234.89 277.6 235.814 277.199C239.814 275.462 237.936 275.065 242.615 275.243L245.324 271.065C243.532 270.568 241.594 270.124 239.778 269.673C242.019 269.158 243.313 268.949 245.582 268.679C246.414 266.999 247.298 263.731 248.349 262.713C250.215 263.888 253.669 261.755 255.44 260.659L255.383 260.376C254.425 255.388 255.546 254.192 259.43 251.006C258.012 249.093 257.191 247.877 255.948 245.832C258.469 245.685 261.262 245.672 263.805 245.614C263.794 244.361 263.851 242.743 263.888 241.533C264.016 237.427 269.75 238.983 270.036 236.266C269.497 235.953 265.777 236.501 264.265 236.377C263.116 235.52 263.538 235.264 262.991 233.377C261.811 232.615 260.85 232.958 259.124 232.835C257.728 231.404 258.481 230.399 258.117 228.807C257.767 227.276 255.907 227.775 254.851 226.092C254.974 224.677 254.722 224.93 255.515 224.211C262.466 224.136 255.789 216.929 258.202 212.753C261.324 211.012 261.844 213.609 265.034 213.648C266.565 212.683 266.583 210.274 265.924 208.773C263.025 207.549 262.474 206.173 260.572 203.603C259.469 204.76 258.655 206.182 257.067 205.682C256.691 204.609 256.683 204.403 255.949 203.576C254.549 203.848 254.342 204.389 253.095 205.471C252.306 204.269 251.517 202.567 250.86 201.249C251.257 200.226 253.628 196.776 253.541 196.151C253.455 195.535 252.314 195.188 252.281 193.996C252.247 192.755 252.862 191.788 252.582 190.471C251.496 189.589 251.997 189.851 250.408 189.643C248.263 190.705 249.422 190.824 247.667 192.326C245.85 192.155 242.649 191.929 241.309 190.656L241.645 189.984C243.198 189.429 242.989 190.096 244.995 190.017C246.194 188.869 247.132 187.819 248.237 186.578L252.388 188.317C253.812 187.457 258.056 184.063 258.824 184.009C259.505 184.59 259.654 184.797 260.485 185.064C260.751 184.875 261.008 184.672 261.255 184.458C262.376 183.492 266.58 178.526 266.67 177.072C266.184 176.753 265.946 176.756 265.381 176.662L265.174 176.628C264.661 174.883 264.718 166.459 264.68 163.999L260.853 161.317C262.969 159.391 264.401 156.257 266.18 155.829C267.04 156.769 265.845 157.462 266.693 158.792C268.468 159.556 269.788 158.772 271.906 159.013C273.32 161.435 270.244 169.767 268.977 172.257C270.1 175.535 269.863 174.975 272.792 176.391C274.511 177.224 275.879 180.279 278.318 178.902C279.558 176.754 278.917 173.043 280.753 172.087C281.503 172.898 281.3 175.163 281.345 176.533C283.03 176.862 286.607 177.764 287.787 176.399C287.516 175.42 287.305 175.019 287.497 174.057C288.62 173.283 288.873 173.127 289.762 172.041C290.215 169.896 288.386 167.381 287.252 165.272L287.836 164.879L287.286 165.367L288.055 165.079C288.854 165.929 289.487 166.719 290.546 167.221L291.259 166.963C292.035 165.774 292.194 163.973 292.427 162.528C293.566 163.256 294.267 163.695 295.488 164.295C297.151 164.132 296.532 164.383 297.833 163.363C298.73 164.007 300.34 167.502 301.029 168.788C301.331 167.35 301.614 165.695 302.16 164.354C305.839 163.905 305.214 163.254 306.043 160.563C307.494 160.318 310.114 163.864 312.191 163.25C313.51 162.861 313.269 160.754 314.438 159.162C315.652 158.948 315.84 158.905 317.039 159.168C318.58 161.713 314.151 162.236 314.242 167.206L314.249 167.481C313.654 168.787 311.916 169.964 310.736 170.906C312.802 173.889 313.669 176.029 314.702 179.457C315.731 178.163 317.491 175.548 318.95 175.047C319.907 175.437 320.111 175.597 320.974 176.188C320.842 177.345 317.14 177.279 316.356 179.208C316.187 179.624 314.129 181.424 313.597 181.866C312.557 181.451 311.513 181.058 310.457 180.687C308.704 180.086 305.779 178.941 304.2 179.72C304.181 183.634 300.909 182.613 300.686 186.104C302.134 189.478 312.847 191.111 315.881 190.884C317.269 189.989 318.264 188.1 319.172 186.664L324.239 186.732L325.769 183.801C328.034 183.244 330.903 182.747 333.233 182.279C333.074 181.046 333.033 180.224 332.524 179.067C329.961 177.13 329.58 180.402 326.772 180.29C323.82 178.914 325.324 176.829 326.24 175.101C325.237 173.332 323.771 174.257 322.738 172.408C322.983 171.147 322.757 171.609 323.579 170.64C325.516 172.243 326.402 172.875 328.585 174.186C328.962 175.168 329.06 175.66 329.271 176.695C330.511 177.952 333.082 177.884 334.458 176.828C335.197 175.841 335.144 175.236 335.197 174.03L335.212 173.601L335.377 173.365C335.758 172.825 338.05 172.907 338.152 172.75C339.709 170.372 339.935 169.509 342.415 167.85C343.501 168.984 343.719 169.403 345.212 169.204C347.772 167.033 346.188 159.479 343.026 158.066C340.447 158.143 339.253 161.205 336.195 160.45C335.046 159.012 335.359 155.324 335.377 153.359L334.382 153.004C331.996 153.407 330.692 156.278 328.555 155.386L328.377 154.828L329.429 153.273C328.69 151.947 327.963 153.283 326.27 151.554C326.512 150.393 327.616 149.883 328.694 148.791L328.551 148.293C323.262 144.477 323.232 149.04 321.031 151.703C321.019 151.718 317.74 151.669 317.284 152.606C316.221 154.789 316.952 156.419 314.837 157.822C313.198 157.789 312.572 157.364 311.761 156.067C311.727 153.146 314.34 151.723 316.541 150.572C316.914 149.202 317.499 147.609 317.25 146.252C316.134 145.122 315.335 145.226 313.624 144.956C312.481 143.853 312.903 143.919 312.564 141.96C311.422 141.84 311.954 141.792 311.026 142.267C306.827 144.415 310.759 146.361 310.046 148.647C308.625 149.526 304.769 149.238 302.926 149.208C303.657 150.427 304.369 151.766 305.361 152.768C306.97 152.635 307.181 152.632 308.697 153.207C308.58 154.373 305.387 153.756 303.992 156.888C302.771 155.953 302.221 150.925 300.159 149.318L299.465 149.487C298.3 150.979 298.549 152.328 297.822 154.12C290.12 155.789 292.993 149.201 289.159 148.653C287.112 149.431 287.252 151.906 285.005 151.535C284.165 149.474 287.678 149.112 288.27 147.153C287.87 145.999 287.32 145.673 286.396 144.909C284.628 144.659 284.964 145.388 283.407 145.828C281.043 146.497 279 142.922 278.657 141.008L278.97 140.688L280.256 141.558C281.707 141.529 281.692 141.21 283.12 140.286C285.563 140.614 286.784 144.068 289.152 142.397C290.381 139.448 288.326 134.878 290.916 132.725C295.409 132.031 293.358 134.881 294.463 136.946C295.835 137.743 297.686 136.775 298.093 136.993C302.665 139.453 310.468 140.918 315.848 140.179C314.83 139.641 313.518 139.118 312.922 138.215C313.676 136.666 314.992 133.236 316.153 132.335C317.216 132.347 317.265 132.426 318.203 133.007C318.897 134.873 318.102 135.238 318.154 137.069C318.279 141.09 324.725 140.38 327.367 140.207C328.423 141.476 328.558 142.118 330.149 141.408L330.247 140.69C329.512 138.475 327.111 135.423 325.328 133.906V126.798L322.682 124.655C324.37 122.917 325.667 120.714 327.371 118.907C329.802 116.33 332.848 117.841 335.419 116.58C336.248 115.544 336.071 116.046 336.048 114.681C334.394 111.316 332.049 111.746 329.203 112.902C321.585 115.991 324.823 111.135 318.954 108.269C319.757 105.001 320.179 103.211 320.503 99.8845C317.974 99.9874 312.285 99.7152 310.333 97.5621C309.262 96.3777 310.28 94.4021 311.746 93.7008C315.342 93.3942 315.832 96.7626 318.648 96.4357C323.323 95.8931 320.974 98.3558 323.093 99.9075C323.899 99.6511 325.381 97.5168 326.052 96.6801L330.899 96.694C334.495 91.6027 332.264 88.608 337.044 83.6848L336.791 83.1098C333.625 81.6086 333.074 82.0238 330.748 84.465C329.339 84.4167 329.761 83.0683 329.018 82.5962C326.681 81.1049 322.614 79.77 322.12 76.4604C322.553 74.0418 324.178 71.8272 326.892 71.9513C331.397 72.1568 334.469 75.6014 337.341 78.6689C337.62 76.2896 338.133 71.8672 339.43 69.9034C342.415 68.3924 344.537 72.0618 347.595 68.8864C349.472 68.8634 348.069 70.1413 350.61 70.6033C353.106 69.8744 355.194 67.6021 357.079 65.7993C357.765 67.1338 358.835 69.5252 360.158 70.1006C360.524 69.1051 360.596 68.7808 361.203 67.9324L361.753 68.4366C363.132 72.5264 361.074 80.2557 361.402 85.551C361.613 88.924 362.597 107.244 368.368 108.021C371.836 108.487 374.935 99.972 376.024 97.6503C376.356 96.947 379.636 94.1209 380.631 92.9421C379.27 92.4116 378.934 93.4726 376.937 92.5767C375.666 91.4285 372.455 80.399 373.337 78.6237C374.505 79.0125 374.728 79.7908 375.591 80.9785C380.446 79.175 380.442 78.7168 380.653 73.7145C383.356 74.5011 385.561 75.0445 388.313 75.6369C388.272 73.5645 388.294 71.4913 388.381 69.4204C389.225 68.1639 388.788 68.5044 390.013 67.9004L390.431 68.2495C389.941 69.3461 389.629 69.8819 389.527 71.1082C390.56 72.3405 391.05 71.153 392.045 71.8846C393.308 72.8095 393.055 73.877 394.552 74.9581C395.739 74.5577 395.509 74.466 396.319 73.276L397.183 73.9057C397.235 74.3951 397.435 75.816 397.658 76.1342C399.761 79.1003 413.139 83.3519 414.579 84.537C414.236 87.9285 408.88 96.1363 407.142 100.84C418.285 106.194 424.391 99.3701 433.393 93.7649C439.793 89.7814 443.405 86.3972 447.958 80.4031C446.221 78.6022 444.943 77.8714 445.463 75.2771C446.99 73.259 450.239 72.8729 452.734 72.2809C453.356 73.2715 454.02 74.6976 455.011 75.0584L455.52 74.6844L455.192 72.8065C456.907 69.5297 466.014 73.923 469.791 66.4856Z" fill="#A4A784"/>
<path d="M282.838 205.169C287.361 206.137 288.417 209.248 294.015 207.689C294.738 207.488 295.733 207.886 296.306 208.46C295.176 210.926 293.988 211.823 291.583 210.803C290.29 210.072 288.926 209.32 287.433 209.56C285.733 211.239 288.127 213.971 285.533 214.918C284.165 214.688 284.447 214.951 283.712 214.116C285.518 209.203 285.789 209.544 282.838 205.169Z" fill="#A4A784"/>
<path d="M280.859 195.165C282.973 195.311 285.299 196.678 286.294 198.568L285.751 199.054C283.836 199.259 280.783 200.133 279.731 198.338C279.758 196.879 280.131 196.43 280.859 195.165Z" fill="#A4A784"/>
<path d="M317.049 216.551C319.27 216.716 321.011 218.461 321.603 220.544C319.779 220.704 318.55 221.026 317.14 219.993C316.608 218.839 316.887 217.855 317.049 216.551Z" fill="#A4A784"/>
<path d="M377.72 230.151C378.855 230.082 379.413 229.961 380.461 230.472C379.88 231.874 375.602 233.463 375.21 234.431C374.754 235.552 374.366 238.035 373.691 239.783L373.54 240.157C372.439 239.624 371.896 239.509 371.331 238.445C371.61 235.45 375.47 236.285 372.711 232.204L372.892 231.656C374.132 230.861 376.224 230.499 377.72 230.151Z" fill="#A4A784"/>
<path d="M16.7288 102.716C17.7458 102.724 17.779 102.73 18.6908 103.153C19.0173 104.882 17.6652 104.527 17.1533 106.87C19.1492 109.784 18.0006 110.306 18.9638 111.42C20.8583 111.057 21.9718 108.752 23.2916 107.157C22.8268 109.072 21.8305 111.791 22.2074 113.535C25.7651 117.225 21.8086 116.151 21.8018 118.797C21.8003 119.331 22.8573 119.637 22.5765 121.456C21.659 122.752 20.193 123.533 18.8412 124.387C21.4807 124.134 25.9099 123.159 26.4847 126.693C25.0602 128.001 22.7536 127.057 21.3374 129.015C19.9457 133.598 28.0615 141.03 30.3214 145.184C32.4643 149.124 33.3637 151.107 34.7924 155.41C34.5119 155.44 34.2322 155.472 33.9525 155.506C32.0493 155.738 31.1917 155.727 30.053 157.173C29.9923 159.002 32.4236 161.706 32.4557 164.101C32.4741 165.513 42.999 169.071 44.5954 170.312C43.8155 171.89 41.0785 171.722 40.0498 173.591L40.2789 174.272C42.6688 176.258 44.1725 176.036 47.2488 176.248C48.6292 177.753 50.8129 180.194 50.2252 182.426C49.6425 181.965 49.0635 181.499 48.4886 181.028C47.7377 182.848 50.0092 186.845 48.0807 188.622C47.3193 189.323 46.5337 190.271 45.7806 191.029C45.9348 194.394 48.8396 203.377 43.6368 202.747C40.7641 200.901 40.3136 194.629 38.7693 191.69C37.5611 189.391 33.3871 188.017 31.4507 186.191C29.2689 184.135 27.6295 181.042 25.3215 179.211C23.9644 178.134 21.7359 177.387 20.0833 176.888C26.2586 171.516 31.6411 175.447 34.2722 173.607L34.0679 172.912C31.756 171.563 32.231 172.998 29.6866 172.192C28.9688 171.009 28.7872 168.606 28.5761 167.131C27.1331 166.842 25.1047 166.621 23.99 165.74C21.2628 163.583 21.3027 158.169 20.9952 154.701C22.7005 156.061 23.8834 157.379 25.3652 158.954C25.8801 157.603 26.4576 156.353 26.5417 154.915C25.4428 152.748 23.961 149.886 22.3669 147.959C21.9734 147.484 21.354 147.721 20.6597 147.799C20.2616 149.444 22.3744 150.168 22.2794 152.428C21.6409 153.413 21.9432 153.282 21.0638 153.513C19.8447 152.949 18.7538 150.409 16.8057 148.479C18.6155 147.615 22.6922 146.7 21.895 144.377C20.8704 143.266 19.101 142.729 17.6569 142.16C18.7983 141.13 20.2005 140.201 21.4697 139.312C20.5353 137.011 20.311 135.737 17.8627 134.777L17.8593 134.733C18.0504 136.125 18.4096 137.855 18.0832 139.175L17.4277 139.489C13.3245 138.343 15.4457 130.914 12.4304 128.39C11.3938 127.522 9.57461 127.215 8.6786 128.271C8.40757 130.733 10.0892 135.115 10.9373 137.503C9.41818 138.523 8.01176 139.32 6.42893 140.22L4.09183 136.17C5.02743 135.451 5.574 135.176 6.03728 134.098C5.84993 133.49 1.15649 128.127 0 126.273C0.613303 121.561 0.38261 117.693 0.387134 113.016C0.387888 112.172 0.824015 111.881 1.45353 111.482C3.95951 111.884 6.21181 114.985 7.93675 116.916C9.7367 114.216 10.353 113.076 13.2503 111.73C14.625 108.663 14.9865 105.392 16.7288 102.716Z" fill="#A4A784"/>
<path d="M263.097 22.2721C265.928 22.2031 272.358 20.9014 274.028 23.116C273.297 25.0485 271.891 24.5553 271.329 26.3709C271.454 26.6224 271.582 26.8607 271.74 27.0934C272.562 28.2537 273.795 29.0538 275.189 29.3264C277.221 29.7035 278.589 28.7461 280.21 27.6831C281.089 28.3781 280.84 29.4343 281.417 31.041C283.102 31.728 283.46 29.7295 286.053 30.2371C286.984 31.3951 286.743 30.8513 286.996 32.2952C285.401 34.486 282.604 32.9128 280.301 34.0659C281.925 36.0727 281.496 40.9517 282.223 41.5445C284.048 43.0317 285.473 44.4518 287.263 46.5118C287.237 42.85 286.713 40.3533 290.984 39.4472L291.387 39.3639L291.711 38.6716C291.572 37.2911 290.075 36.0019 289.152 34.3239C289.039 31.308 292.514 29.541 294.84 31.182C295.895 34.0637 292.823 34.65 295.549 38.0366L295.782 38.322C297.007 39.164 299.254 40.5943 300.208 41.6116C301.557 43.3692 306.424 48.9021 303.393 50.9398C302.27 50.683 302.168 50.5582 301.391 49.6954C301.011 47.7633 301.625 47.2844 300.856 46.0525C299.544 45.5521 299.341 45.5932 297.965 45.8006L297.66 46.4341C297.938 47.166 298.225 47.8949 298.519 48.62C297.731 50.2113 296.857 51.6155 296.955 53.3855C297.987 55.6608 299.054 53.9511 301.014 55.4413C301.335 57.2053 299.951 56.553 300.596 58.2996C301.267 58.5217 303.122 58.0779 304.554 58.0783C305.745 57.4206 306.635 57.0247 307.547 56.0043C308.282 53.3972 305.214 54.1992 304.211 52.0861L304.471 51.9504L305.904 53.1321C307.212 52.9941 306.703 53.1909 307.822 52.1807C309.345 48.2863 309.217 44.123 312.96 41.3631C315.048 39.8247 318.211 40.267 319.063 42.942C317.785 45.5589 315.478 44.9661 312.896 44.8504C310.898 47.715 307.068 54.2909 312.662 55.6386C313.213 63.9535 307.596 60.6955 313.902 66.3453C311.984 67.794 311.81 67.4071 311.837 69.9762C310.491 71.2899 309.846 70.5652 308.071 71.3469C307.905 71.42 307.464 73.5509 306.94 73.3612C305.025 72.6678 302.971 70.4796 301.203 69.4441C299.838 68.6443 298.945 69.1557 298.052 67.8751C297.445 65.7303 298.885 63.6368 298.244 61.6899L297.332 61.5904C295.353 63.2401 297.098 67.1409 294.527 66.6922C292.725 66.3777 290.705 65.4746 288.854 66.7201C289.34 67.667 290.151 67.7326 291.361 68.2473C290.249 70.3133 289.698 71.2948 288.944 73.5554L288.477 73.7915C286.268 71.5871 288.043 70.658 285.669 70.5799C282.155 72.4807 284.79 76.0306 283.185 77.1128L282.917 76.942L283.588 76.9706C278.997 75.2123 282.257 72.1859 281.895 69.5407C281.861 69.2895 278.273 67.4517 278.201 66.7559C277.949 62.2137 278.597 54.766 278.231 50.3674L273.018 50.8184L270.406 45.9876C270.025 48.4605 269.501 51.5646 269.554 54.0318L269.218 54.0205C267.334 50.4458 270.029 47.2282 268.137 45.9872C266.433 47.0431 266.614 48.3266 266.271 50.2969C266.191 49.3059 265.962 48.0487 265.807 47.0442C266.029 45.7882 268.137 41.7561 268.623 39.1388C268.898 37.667 268.566 36.1466 267.707 34.9215C267.081 34.0286 265.992 32.3683 265.072 32.2092L264.378 33.5343C263.722 32.7937 263.21 23.7981 263.097 22.2721Z" fill="#A4A784"/>
<path d="M206.271 21.1128C214.339 21.1098 217.42 21.827 224.676 22.2859C223.514 29.9651 219.382 34.0749 216.961 41.5172C214.696 40.9546 213.749 40.7521 211.612 39.7174C210.52 38.1601 208.517 35.3852 208.106 33.6122C209.669 33.5394 211.14 35.1246 213.505 35.5553C214.553 35.0605 214.272 35.3675 214.806 34.4504C213.619 32.4998 209.587 30.7694 207.589 27.6879C205.827 27.8685 206.741 28.8158 204.891 29.3908L204.309 28.8538C204.312 27.7154 204.701 27.6151 205.527 26.5261C205.714 24.9831 205.551 25.2659 204.438 23.6528C204.685 22.4348 205.355 21.9903 206.271 21.1128Z" fill="#A4A784"/>
<path d="M186.893 117.113C188.706 117.175 195.605 119.446 196.052 121.277C195.769 122.394 192.907 125.971 191.945 127.523L191.726 135.077L187.277 136.902C188.615 138.751 190.311 139.958 191.429 141.838L191.071 142.84C190.236 143.854 190.116 144.01 188.968 144.632C185.975 144.773 185.712 142.427 185.054 139.94L187.618 137.48C185.728 134.793 183.037 133.015 181.986 131.214C181.657 129.698 185.876 118.771 186.893 117.113Z" fill="#A4A784"/>
<path d="M29.9977 14.7119L30.6913 14.9544C31.3732 16.9702 30.2325 18.1426 30.6373 20.2957C33.4374 22.1935 33.161 25.3896 33.5519 28.631C31.0584 29.7377 28.2264 30.5737 26.904 32.8942C26.8456 33.9387 26.9044 34.2864 26.4494 35.1959C25.245 35.0032 24.5782 34.9207 23.3501 34.8554L23.0564 35.2676C23.822 36.7653 24.5759 38.2687 25.3182 39.7785C23.6784 39.5187 21.4853 38.7782 20.4053 40.165C20.3936 41.4509 21.5739 43.0742 22.2788 44.233C21.7303 44.825 21.6497 44.8321 20.9787 45.2303C19.5165 44.8525 19.2662 44.756 17.9408 44.0346C16.56 41.5576 19.2877 41.0478 19.6695 38.4795C19.7174 38.0119 19.3103 35.3532 19.7166 35.1148C22.497 33.4847 19.3005 31.9485 19.8267 28.9398C20.6183 27.6887 22.8261 27.005 24.3 26.3478C23.9547 22.137 25.8957 23.9349 28.2795 20.672C28.2603 19.4721 26.9643 18.1878 26.1162 17.0585L29.9977 14.7119Z" fill="#A4A784"/>
<path d="M96.7719 195.815C98.5523 195.64 100.763 195.715 102.584 195.726C104.364 197.426 107.246 202.151 107.511 204.577C107.975 208.828 106.969 209.907 104.707 213.007L100.862 210.992L97.7889 209.29L99.0815 205.001C96.9653 204.446 95.3195 204.277 93.1697 204.017C91.7577 202.527 89.7161 200.863 88.1299 199.494C96.3795 201.341 92.0551 199.331 96.7719 195.815Z" fill="#A4A784"/>
<path d="M117.783 92.2988C118.801 93.3614 118.558 93.4414 118.965 95.0809C119.983 95.5549 120.366 94.0587 122.145 94.3373L122.436 95.1465C122.35 96.5851 121.034 98.2284 120.19 99.4946C120.839 100.73 121.115 102.169 121.781 103.217C122.583 104.477 125.056 105.81 125.341 107.2C121.298 110.388 128.514 111.032 122.746 113.975C121.537 114.592 121.28 117.213 119.771 118.781L118.406 119.292C116.945 118.439 116.66 115.013 115.91 112.757C114.342 112.064 112.115 111.333 111.394 109.849C112.187 108.828 114.993 108.184 116.724 107.165C118.262 104.226 115.782 104.06 115.849 101.463C115.885 100.068 117.974 99.0636 116.441 97.0349C115.525 96.7853 114.797 96.7303 114.272 96.0066C115.173 95.044 115.795 96.1797 117.123 95.4139L117.783 92.2988Z" fill="#A4A784"/>
<path d="M279.826 110.372C282.37 111.677 285.974 110.795 286.935 112.607C286.358 114.495 282.517 118.12 281.02 119.622C279.426 119.658 277.831 119.713 276.241 119.787C273.489 126.067 274.183 121.639 270.624 124.023C270.481 124.917 270.432 124.552 271.073 125.471C272.562 126.533 273.704 127.282 272.859 129.159L272.038 129.361C269.497 128.254 269.335 123.768 269.248 121.405C269.154 118.773 272.256 119.401 274.009 117.777C276.203 115.746 274.936 115.877 274.906 113.194C274.918 112.363 277.534 112.1 279.505 110.619L279.826 110.372Z" fill="#A4A784"/>
<path d="M186.689 225.162C187.218 224.96 187.201 224.855 187.536 224.375C188.249 225.636 188.464 225.771 189.588 226.605L189.538 228.203C190.573 229.604 190.92 227.339 192.839 227.546C194.973 230.456 192.309 231.047 193.046 233.753C194.923 236.147 198.032 236.676 200.788 238.063L200.957 238.638L200.241 239.034C198.778 238.72 197.715 238.346 196.818 239.681C195.285 241.961 193.926 244.035 192.188 246.189C191.599 243.874 191.392 241.631 190.541 239.344C189.949 237.751 186.302 233.032 186.366 231.711C187.17 231.194 187.227 231.165 187.819 230.429C187.233 228.406 185.143 228.844 185.026 226.494C185.593 225.626 185.715 225.627 186.689 225.162Z" fill="#A4A784"/>
<path d="M308.324 73.3623C309.994 73.745 310.095 74.6587 310.849 76.0588C312.67 77.0792 311.961 75.454 314.615 76.0859C315.991 77.3959 315.772 77.4321 316.161 79.609C317.291 80.2979 317.661 79.8982 319.335 79.6459C320.198 80.3563 318.927 79.4683 319.282 82.4186C318.351 82.8764 318.814 82.8469 317.849 82.5468C317.216 81.727 316.99 81.3017 316.089 80.8051C313.047 82.2911 310.453 84.2402 307.532 85.6875L307.264 86.7618L307.705 87.3459L309.1 88.7252C309.428 89.9839 309.519 89.5525 308.987 90.4752C307.389 91.3927 302.639 91.0755 300.589 91.0518L300.151 90.5156L300.378 89.3161C301.267 88.0872 302.899 87.8617 304.418 87.425C304.863 86.4548 304.219 83.5709 304.136 81.9529C305.549 79.6052 307.072 82.1279 309.259 81.1927C311.03 78.1968 307.004 78.3786 308.324 73.3623Z" fill="#A4A784"/>
<path d="M253.198 305.978C254.824 306.025 254.38 307.121 256.309 307.252C257.435 306.079 257.585 305.519 259.043 306.394C258.923 307.136 258.879 307.496 258.838 308.245C261.647 309.412 262.027 306.298 263.141 310.771C263.413 311.862 264.661 311.644 265.682 312.251C265.422 313.411 263.733 315.209 262.889 316.231L261.845 316.963C258.809 317.558 258.818 315.718 256.08 314.048C254.952 314.523 254.688 314.693 253.481 314.621C251.595 313.628 249.066 308.818 249.742 306.666L253.198 305.978Z" fill="#A4A784"/>
<path d="M284.722 80.5601L285.804 80.942C286.796 81.9858 286.931 83.7875 287.191 85.257C288.126 84.4127 289.035 83.3199 290.184 83.2381L290.637 84.0013C290.569 85.9609 289.649 88.9108 289.121 90.8871L285.062 91.2951C285.582 92.573 286.343 94.0625 286.242 95.3826C285.322 96.6062 285.284 96.3219 283.607 96.9569C281.714 95.4494 283.656 93.1809 282.344 91.0153C280.365 90.7902 279.792 92.9388 277.5 92.6247C276.452 91.369 276.509 90.7174 277.119 89.3441C279.012 88.5511 278.684 89.2536 280.154 87.5119C282.02 85.2996 282.717 82.4933 284.722 80.5601Z" fill="#A4A784"/>
<path d="M204.067 227.196C205.589 227.137 208.308 226.893 209.656 227.292C210.054 231.24 210.214 230.466 213.124 231.455C213.945 234.189 210.376 234.231 210.181 238.408L210.167 238.787L209.324 239.266C208.603 238.472 208.414 238.164 207.489 237.664C206.072 237.783 205.29 238.334 204.047 239.023L203.449 238.619C202.318 235.874 202.241 231.269 202.121 228.278C202.736 227.275 202.662 227.554 204.067 227.196Z" fill="#A4A784"/>
<path d="M505.666 38.4365C509.228 38.7702 509.778 42.6489 512.278 44.8898C513.062 45.592 513.936 46.1881 514.815 46.7567C513.518 47.7149 512.364 48.8495 511.188 49.9548C510.208 47.9427 509.639 45.8295 507.362 45.1662C505.183 45.2797 502.88 47.2507 500.988 48.5596C498.515 49.0422 492.974 47.762 492.469 44.6444C492.725 43.3532 493.2 43.0324 494.12 42.1334C497.49 43.1357 498.206 41.8985 499.461 42.202C500.596 44.314 501.493 45.4102 504.06 45.0516C505.975 43.7345 506.126 41.8136 505.338 39.8016L505.187 39.4245L505.666 38.4365Z" fill="#A4A784"/>
<path d="M61.2816 197.173C62.0683 198.192 61.596 201.135 62.3514 202.963C62.9941 204.518 63.2862 205.026 64.1796 206.49C66.4033 206.174 71.2908 206.31 72.4684 205.919L72.9491 204.67L73.4587 204.454C74.3102 207.248 71.7624 208.648 69.8026 209.985C61.8188 214.81 61.9733 212.411 57.483 204.567C57.016 203.751 57.2392 203.212 57.6187 202.46C60.4828 201.991 60.4338 199.848 61.2816 197.173Z" fill="#A4A784"/>
<path d="M171.162 176.34C171.712 176.326 171.797 176.424 172.314 176.641C172.51 177.608 172.391 182.464 172.446 184.116C170.118 184.166 166.264 183.823 165.329 186.331C165.917 188.221 168.782 189.63 170.493 190.637L170.476 190.923C168.456 190.684 168.002 190.346 166.22 189.301C164.793 190.934 164.233 191.772 163.064 193.618C162.316 195.004 161.136 196.78 160.283 198.152C160.259 196.337 160.378 192.516 160.474 190.564C160.045 190.064 159.676 189.633 159.367 189.273C159.698 185.549 166.694 184.575 169.392 182.022C169.729 180.3 168.259 181.575 167.872 179.275C168.451 178.011 169.975 177.161 171.162 176.34Z" fill="#A4A784"/>
<path d="M35.7575 0C39.1897 1.45778 41.6346 2.04754 45.2409 2.89106C43.0779 4.75232 41.5483 6.95973 38.899 9.16903C36.4715 10.2788 32.2986 8.52837 30.7599 6.6328C30.6879 3.18669 34.2263 5.81002 35.7575 0Z" fill="#A4A784"/>
<path d="M158.487 222.752C159.62 223.057 159.761 223.157 160.719 223.846C160.721 225.577 159.434 224.67 158.994 226.449C159.591 227.263 160.559 228.542 161.394 229.038C165.552 231.507 164.276 234.026 164.675 238.34C157.623 234.024 157.169 240.089 157.293 227.579C156.257 226.181 156.075 226.421 155.92 224.861C156.428 223.767 157.437 223.347 158.487 222.752Z" fill="#A4A784"/>
<path d="M35.0122 105.382C37.9087 106.04 37.0696 106.776 39.4203 108.121C40.6201 107.918 40.9254 107.855 42.1302 107.96C43.6459 108.886 45.2487 110.051 45.8624 111.794L45.5005 112.205C44.2053 111.95 43.4503 110.933 42.5354 109.968C40.5221 111.242 39.6984 111.566 37.4774 112.421C35.8075 113.3 35.708 116.351 33.4893 117.26C32.2457 116.874 32.7048 117.143 31.7647 115.943C31.8092 114.637 32.7399 113.699 33.5594 112.584C32.4903 111.939 31.3991 111.362 30.5547 110.443C33.8809 108.648 33.6608 108.832 35.0122 105.382Z" fill="#A4A784"/>
<path d="M301.245 102.723C302.538 102.626 303.258 102.435 304.404 103.013C305.199 104.128 304.935 106.015 304.894 107.485C307.461 107.78 309.323 108.163 311.837 108.698C309.986 109.679 308.49 110.495 306.703 111.621L303.823 114.529C297.306 107.935 301.81 111.448 301.245 102.723Z" fill="#A4A784"/>
<path d="M105.719 215.576L111.577 215.707C112.287 219.741 115.076 222.282 110.289 224.396C109.336 225.25 108.772 225.285 107.553 225.557C104.217 224.049 108.753 220.011 105.719 215.576Z" fill="#A4A784"/>
<path d="M266.203 51.2062C266.433 51.736 266.335 51.6345 266.275 52.3087C264.33 53.0565 263.776 51.7737 262.051 51.0365C260.492 52.8777 257.721 55.7861 255.236 53.5437C254.812 52.4369 254.853 52.2703 255.08 51.0979C256.352 50.8788 255.885 52.1387 257.414 52.6349C257.786 51.2092 257.959 50.5089 259.246 49.6643C266.949 44.6073 260.819 44.5662 258.523 41.0209C258.528 39.9304 258.395 40.3565 259.269 39.4051C261.893 39.2426 262.585 42.3222 265.739 43.4259L265.472 43.9927C262.81 45.6047 261.809 50.0821 264.691 51.6485C265.336 51.558 265.656 51.5685 266.203 51.2062Z" fill="#A4A784"/>
<path d="M71.2755 157.55C72.9232 158.257 75.4047 158.688 77.2141 159.072C77.3117 161.173 78.0426 164.155 76.2242 165.304C70.4824 165.244 67.247 163.256 71.2755 157.55Z" fill="#A4A784"/>
<path d="M102.755 183.489C103.462 184.058 103.662 184.268 104.268 184.947C105.662 184.932 106.262 183.706 108.029 183.785C108.267 185.056 106.525 186.435 106.246 190.046L106.231 190.259C104.768 188.633 104.2 188.062 102.468 186.74C101.965 187.523 101.798 188.915 101.608 189.882L101.171 190L100.778 188.719C99.2635 187.619 98.0527 188.894 96.1468 187.994L96.0107 187.28C98.1598 181.94 99.0814 185.473 101.774 185.033L102.755 183.489Z" fill="#A4A784"/>
<path d="M54.6857 183.465C55.1734 183.704 55.1927 183.782 55.6156 184.153C55.1565 185.268 54.3999 185.429 53.1861 186.196C54.5718 187.422 56.1739 188.621 56.745 190.431C57.3975 192.499 57.9003 196.35 55.2658 197.088L54.5273 196.624C55.3781 195.676 55.999 195.115 56.4257 193.894C54.8696 191.368 50.5064 191.102 50.1924 187.45C50.8517 185.504 52.9894 184.438 54.6857 183.465Z" fill="#A4A784"/>
<path d="M315.644 31.4936C316.402 31.3556 316.047 31.3059 316.745 31.6724C314.423 35.7082 311.633 33.2173 309.032 34.6015C307.087 35.637 304.422 37.6287 302.289 38.9115C301.708 38.723 301.045 37.9157 300.581 37.4345C300.46 36.1932 300.317 36.6091 300.954 35.7524C305.553 33.4692 310.521 31.859 315.644 31.4936Z" fill="#A4A784"/>
<path d="M81.2526 59.1289C82.4491 61.0233 85.6965 64.4747 84.0624 66.451C82.8223 66.8978 81.7751 66.4887 80.5018 66.161C78.2389 65.0042 76.9799 63.6146 75.2832 61.8137C78.4541 61.3669 79.3317 61.5399 81.2526 59.1289Z" fill="#A4A784"/>
<path d="M50.2402 14.856C50.7676 14.974 51.923 15.3179 52.2649 15.6818C54.3784 17.9303 59.226 21.6298 59.5389 24.6257C54.7034 24.6883 50.0461 19.8658 50.2402 14.856Z" fill="#A4A784"/>
<path d="M200.557 198.749C200.902 198.936 201.24 199.136 201.571 199.347C203.531 200.599 205.874 202.163 206.392 204.499L205.994 205.12C204.443 205.446 203.055 204.263 201.866 203.44C201.647 203.102 201.702 203.238 201.2 203.03L198.702 205.141C197.495 205.22 197.939 205.351 197.001 204.709L196.812 203.673C197.11 202.227 199.456 199.97 200.557 198.749Z" fill="#A4A784"/>
<path d="M310.197 110.282C312.251 110.661 316.748 114.729 318.426 116.216C319.089 116.806 319.172 117.873 319.138 118.742C312.817 118.988 315.976 117.573 311.727 114.24C310.706 114.091 310.318 114.134 309.534 113.526C309.251 112.404 309.782 111.429 310.197 110.282Z" fill="#A4A784"/>
<path d="M277.568 93.8657L278.141 94.3028C278.303 95.8476 278.333 97.4269 278.386 98.9815L276.29 102.62L273.655 99.4838C272.668 98.3398 271.623 95.9155 272.087 94.4611C273.233 94.1595 275.182 95.1934 276.467 95.6881L277.568 93.8657Z" fill="#A4A784"/>
<path d="M257.483 165.789C259.948 167.28 258.845 174.003 254.777 172.475C254.171 172.248 251.571 172.681 250.766 172.817C250.015 172.213 250.003 172.153 249.525 171.297C250.979 168.447 255.671 172.093 257.483 165.789Z" fill="#A4A784"/>
<path d="M211.748 190.209C214.69 189.96 217.664 190.1 220.619 190.167C219.707 191.221 218.577 192.285 217.571 193.275L214.354 195.564C212.358 193.508 211.873 193.033 211.748 190.209Z" fill="#A4A784"/>
<path d="M79.9238 8.89893C80.9959 8.95209 82.0668 9.02977 83.1358 9.13083C84.961 9.31409 89.1776 9.86462 90.298 11.2361L89.6703 11.6576C84.1578 13.465 82.44 15.0208 79.9238 8.89893Z" fill="#A4A784"/>
<path d="M213.543 209.913C215.636 210.373 217.286 212.063 217.235 214.288C216.786 215.596 216.403 215.75 215.282 216.485C213.056 215.875 211.52 215.446 211.242 212.977C211.6 211.585 212.502 210.917 213.543 209.913Z" fill="#A4A784"/>
<path d="M95.4403 75.8381C96.682 75.7857 96.8305 75.5873 97.8479 76.1133C98.7481 77.6975 99.6286 80.412 99.7406 82.2062L99.3018 82.4505C95.6058 81.9139 91.0658 79.0753 95.4403 75.8381Z" fill="#A4A784"/>
<path d="M141.754 163.829C144.455 163.674 148.604 163.122 151.043 164.204C152.346 164.782 152.453 165.928 152.878 167.193C149.756 167.253 143.523 166.795 141.754 163.829Z" fill="#A4A784"/>
<path d="M144.07 182.139C141.367 182.134 136.323 182.43 136.66 178.462C137.158 177.719 137.787 177.072 138.736 176.964C142.634 176.518 141.319 179.787 144.138 181.605L144.07 182.139Z" fill="#A4A784"/>
<path d="M255.544 117.064C255.865 117.211 260.613 119.592 260.486 119.489C259.879 120.555 258.373 121.152 257.208 121.769C256.681 122.873 256.468 123.63 255.467 124.297C254.834 123.566 254.859 121.669 254.746 120.511C253.967 120.103 253.836 120.068 252.971 119.842L252.743 119.784L252.796 119.202L254.601 118.96L255.544 117.064Z" fill="#A4A784"/>
<path d="M13.5597 92.9663C14.7958 93.6658 15.2081 93.9173 15.2485 95.268C14.5854 96.0606 14.0505 96.4977 13.9668 97.4973C14.8542 98.9615 16.5874 99.0622 18.2524 100.546L18.2924 101.524C15.688 101.475 13.5816 100.285 11.2109 99.2213C12.2875 96.874 12.7753 95.4098 13.5597 92.9663Z" fill="#A4A784"/>
<path d="M528.423 33.7485C530.157 34.3183 530.911 35.517 532.132 36.9198C532.215 38.9752 532.916 40.6698 532.528 42.4044C531.695 43.4417 531.936 43.1325 530.319 43.4326C529.799 42.8237 529.833 42.8308 529.652 42.094C532.192 38.1569 530.04 38.5687 527.808 35.8247C527.642 34.5856 527.582 35.0939 528.423 33.7485Z" fill="#A4A784"/>
<path d="M297.516 96.1411L301.225 98.5363L301.609 99.5869C297.486 100.756 298.341 102.963 295.763 103.767C295.039 102.002 296.815 98.0438 297.516 96.1411Z" fill="#A4A784"/>
<path d="M119.415 74.54C120.027 74.9054 120.145 75.1407 120.566 75.6992C120.553 76.9153 119.442 78.1057 118.661 79.1709C119.093 80.3795 119.323 81.0624 119.614 82.329L119.237 82.5292L118.234 81.8407C116.886 81.0205 115.465 80.6906 113.952 80.2449C116.35 78.1954 117.372 76.9669 119.415 74.54Z" fill="#A4A784"/>
<path d="M271.155 82.491C273.131 82.4673 274.684 82.2606 275.547 84.2233C275.423 85.5378 275.068 85.8723 274.295 86.9006C273.353 87.5277 273.112 87.7765 272 87.7709C269.821 86.5978 270.515 84.4628 271.155 82.491Z" fill="#A4A784"/>
<path d="M202.89 218.175C205.486 218.751 206.015 223.641 204.397 225.954C201.337 223.243 200.129 221.76 202.89 218.175Z" fill="#A4A784"/>
<path d="M528.234 44.019L528.494 44.0485C529.814 46.1929 530.624 45.7555 532.294 47.6205L532.132 48.3219C530.794 48.4452 531.092 48.3505 529.731 47.705L529.501 47.6944C525.769 47.5093 525.935 47.2845 523.413 44.5149L528.234 44.019Z" fill="#A4A784"/>
<path d="M236.699 226.903C238.418 226.87 240.075 227.282 240.211 229.167C239.721 230.342 238.861 230.62 237.701 231.258L236.968 231.629C235.104 231.167 234.894 230.569 234.558 228.883C235.109 227.597 235.287 227.809 236.699 226.903Z" fill="#A4A784"/>
<path d="M163.256 45.6353C163.974 45.7966 164.096 45.9678 164.648 46.4335L164.66 47.2876C163.697 49.1519 161.723 50.2484 159.881 51.0667L158.535 50.1353C157.689 47.65 161.32 46.5617 163.256 45.6353Z" fill="#A4A784"/>
<path d="M47.9667 203.25C50.5869 203.384 50.9047 204.343 53.3255 204.914C53.6135 204.982 53.7477 204.233 55.1141 204.319C55.6596 205.499 55.5103 205.039 55.3501 206.586L49.5808 206.655C48.465 205.957 47.2369 205.308 46.4189 204.298L46.5392 203.74L47.9667 203.25Z" fill="#A4A784"/>
<path d="M189.166 222.467C190.458 221.216 190.059 221.248 191.62 220.899C194.27 222.548 191.776 225.597 189.588 226.605C188.464 225.771 188.249 225.636 187.536 224.375L189.166 222.467Z" fill="#A4A784"/>
<path d="M61.9084 22.2183C64.8573 22.7967 67.6215 24.4215 65.3797 27.6433C63.4268 26.8439 60.6935 25.6414 60.6426 23.354L61.9084 22.2183Z" fill="#A4A784"/>
<path d="M186.897 68.3975C190.129 69.531 191.15 71.4009 189.293 74.4643C188.487 74.626 188.438 74.574 187.652 74.4496C185.677 72.896 186.11 70.4767 186.897 68.3975Z" fill="#A4A784"/>
<path d="M165.588 99.8867C168.109 100.183 172.436 100.363 173.651 102.948C171.823 103.136 168.435 103.697 166.845 102.703C165.706 101.99 165.833 101.184 165.588 99.8867Z" fill="#A4A784"/>
<path d="M474.492 57.3131C475.845 57.3055 477.055 57.1702 477.749 58.4715C477.44 59.7053 476.181 60.4127 475.125 61.1996C473.829 61.5439 473.425 61.3644 472.592 60.4847C472.332 58.6178 473.169 58.18 474.492 57.3131Z" fill="#A4A784"/>
<path d="M126.68 68.5757L127.244 68.7133L127.302 69.3691C126.116 71.9701 125.28 73.3355 122.685 74.5577C121.795 73.9468 121.865 73.7511 121.893 72.831C122.846 70.8389 124.856 69.7299 126.68 68.5757Z" fill="#A4A784"/>
<path d="M75.4892 173.958C77.0939 174.172 77.5791 174.169 78.3217 175.534C78.3115 176.902 77.475 178.177 76.8188 179.441C76.4297 179.815 76.0547 180.089 75.6317 180.42L75.1436 180.13C74.7489 178.655 75.2894 175.606 75.4892 173.958Z" fill="#A4A784"/>
<path d="M232.714 39.6523C234.397 39.5734 235.542 39.486 236.887 40.5018C237.649 42.1157 237.453 41.555 237.337 43.4234C235.707 43.8638 235.184 43.8454 233.864 43.1425C232.968 42.0407 232.94 41.0599 232.714 39.6523Z" fill="#A4A784"/>
<path d="M182.73 119.92C182.842 120.051 182.993 120.473 183.071 120.658C182.286 122.417 180.401 123.258 179.523 124.557C178.607 125.913 180.279 126.222 178.74 128.383C175.184 124.697 179.775 121.719 182.73 119.92Z" fill="#A4A784"/>
<path d="M90.8939 150.835C92.3436 150.689 94.3814 150.419 95.5843 151.236C96.0837 152.445 96.0072 151.915 95.5311 153.489C93.8578 154.253 93.2238 154.553 91.5068 153.753C90.7325 152.778 90.8739 152.065 90.8939 150.835Z" fill="#A4A784"/>
<path d="M273.632 139.87C274.906 140.057 274.431 139.855 275.441 140.62L275.502 141.502C274.661 142.743 273.251 143.438 271.928 144.485L271.502 144.83L270.824 144.715L270.462 143.704C271.001 141.411 271.71 141.121 273.632 139.87Z" fill="#A4A784"/>
<path d="M261.648 144.603C263.278 144.585 263.877 144.59 264.68 145.942C264.702 147.387 264.005 148.256 263.247 149.5L262.568 149.702C260.242 148.868 261.093 146.5 261.648 144.603Z" fill="#A4A784"/>
<path d="M321.498 155.347C321.687 155.659 321.773 155.829 321.819 156.202C322.294 160.042 322.418 160.559 318.679 160.788L318.324 160.061C318.434 157.808 319.866 156.833 321.498 155.347Z" fill="#A4A784"/>
<path d="M183.436 218.691C185.366 218.651 188.036 221.002 189.166 222.467C187.755 222.606 186.037 222.935 184.784 222.39C183.52 221.148 183.548 220.609 183.436 218.691Z" fill="#A4A784"/>
<path d="M15.9014 62.4756L16.6632 62.9884C17.4869 64.6977 17.5573 66.0303 17.2226 67.852L16.6719 68.1242C15.6424 67.1913 14.0796 66.0495 13.9473 64.7332C14.4999 63.2889 14.5379 63.5865 15.9014 62.4756Z" fill="#A4A784"/>
<path d="M142.166 82.5747C144.599 84.6784 145.609 88.8678 143.752 91.6691L143.178 90.9123C144.06 87.6543 141.185 86.1475 142.166 82.5747Z" fill="#A4A784"/>
<path d="M13.9419 86.5352C15.2104 86.8843 15.2447 87.0227 15.7731 88.077C15.7143 89.4971 14.9793 90.3365 14.1809 91.5239C13.1473 91.0782 12.4665 90.2098 12.125 89.1871C12.2351 87.9684 13.0583 87.3802 13.9419 86.5352Z" fill="#A4A784"/>
<path d="M207.593 73.4328C208.984 73.4132 210.337 73.2937 211.398 74.1719C212.035 75.2254 211.82 75.9664 211.68 77.176C208.545 77.2986 208.211 76.308 207.593 73.4328Z" fill="#A4A784"/>
<path d="M200.181 22.4424L201.067 23.3579C201.433 25.68 199.348 27.3444 197.355 28.1046L196.276 26.7286C196.593 25.0318 198.649 25.9948 200.181 22.4424Z" fill="#A4A784"/>
<path d="M119.587 36.9727C121.798 37.9376 125.132 39.1895 125.809 41.694C124.347 41.6933 123.45 41.5655 122.178 40.7317C120.85 39.8716 119.919 38.5198 119.587 36.9727Z" fill="#A4A784"/>
<path d="M183.618 211.384C185.522 212.397 186.606 215.481 186.318 217.479C183.289 216.043 182.255 214.638 183.618 211.384Z" fill="#A4A784"/>
<path d="M35.6279 24.4526C37.7487 24.4911 43.5488 26.838 44.374 28.8588L43.9522 29.4712C42.211 28.283 40.0417 26.671 38.1411 25.8818C37.3973 26.3803 37.2892 26.5111 36.4335 26.6864C35.6852 25.9447 35.8439 25.6457 35.6279 24.4526Z" fill="#A4A784"/>
<path d="M198.263 122.812C199.445 123.156 200.686 123.388 201.544 124.251C201.794 125.523 201.836 124.987 200.979 126.433C199.67 126.305 198.294 126.201 197.416 125.26C197.319 123.822 197.354 124.238 198.263 122.812Z" fill="#A4A784"/>
<path d="M289.596 99.6963L290.595 100.204C291.839 101.84 292.031 102.767 292.661 104.749C288.857 104.595 288.541 102.908 289.596 99.6963Z" fill="#A4A784"/>
<path d="M351.387 264.44L351.816 263.299C354.323 265.044 355.906 265.743 357.848 268.103L357.799 268.489C355.168 267.607 353.584 266.129 351.387 264.44Z" fill="#A4A784"/>
<path d="M14.4447 50.3374L15.1892 50.8404C15.8251 53.2858 14.1055 52.6787 14.3618 57.0494C10.9251 55.3688 13.027 52.6387 14.4447 50.3374Z" fill="#A4A784"/>
<path d="M130.547 98.2856C130.956 98.7178 130.945 98.8411 131.192 99.3924C130.705 101.08 130.388 102.455 131.165 104.078L130.624 105.069C129.117 104.417 129.054 104.536 128.423 103.328C128.432 101.966 129.844 99.952 130.547 98.2856Z" fill="#A4A784"/>
<path d="M489.329 43.0366C489.747 43.192 489.574 43.1437 489.925 43.6196C489.144 45.3598 486.939 46.1102 485.288 46.7335C484.5 46.261 484.836 46.5759 484.372 45.6468L484.647 45.0148C485.899 43.9831 487.75 43.5366 489.329 43.0366Z" fill="#A4A784"/>
<path d="M152.948 157.835C155.151 158.869 156.063 160.26 156.009 162.685C154.177 162.66 154.197 162.636 153.162 161.626C152.671 160.275 152.848 159.269 152.948 157.835Z" fill="#A4A784"/>
<path d="M136.873 20.9775C139.558 21.4323 140.425 21.987 141.112 24.5726C139.7 24.6427 138.659 24.7208 137.495 23.921C136.705 22.8682 136.838 22.269 136.873 20.9775Z" fill="#A4A784"/>
<path d="M227.668 238.899C229.939 239.405 230.73 240.371 230.613 242.601C229.002 242.809 228.47 242.991 227.35 242.147C226.969 241.02 227.359 240.046 227.668 238.899Z" fill="#A4A784"/>
<path d="M59.0608 27.562C60.7043 27.6091 61.2543 27.5269 62.3877 28.4459C62.7089 29.6069 62.2038 30.3988 61.7221 31.4983C60.2274 30.5353 59.2262 30.0835 58.6035 28.5156L59.0608 27.562Z" fill="#A4A784"/>
<path d="M233.832 187.219C235.373 187.653 236.679 188.755 236.652 190.418L235.806 190.839C234.573 190.38 232.958 189.962 232.205 189.001C232.494 187.885 232.716 188.026 233.832 187.219Z" fill="#A4A784"/>
<path d="M341.01 63.2017C341.978 63.9815 342.122 64.0852 342.449 65.2733C342.416 66.664 341.937 67.1908 341.19 68.3341C340.305 67.3571 339.947 67.0437 339.441 65.7805C339.732 64.2258 339.796 64.555 341.01 63.2017Z" fill="#A4A784"/>
<path d="M62.8877 9.71875C66.4239 10.9944 66.3707 12.1867 66.765 15.6996C64.3382 14.5687 63.9786 12.39 62.8877 9.71875Z" fill="#A4A784"/>
<path d="M10.5103 105.757C13.1268 107.024 12.6386 109.744 12.4241 112.111C9.99203 110.056 10.0949 108.674 10.5103 105.757Z" fill="#A4A784"/>
<path d="M477.138 47.8101L477.756 48.4813C477.779 50.9323 476.415 52.0541 474.111 52.4685L473.734 51.4937C474.345 50.1117 475.97 48.8583 477.138 47.8101Z" fill="#A4A784"/>
<path d="M221.32 266.911C221.941 266.806 222.571 267.043 222.969 267.532C223.367 268.021 223.471 268.686 223.242 269.274C223.013 269.861 222.485 270.28 221.861 270.37C220.913 270.506 220.032 269.854 219.884 268.908C219.735 267.961 220.376 267.071 221.32 266.911Z" fill="#A4A784"/>
<path d="M264.815 102.41C266.044 102.722 266.406 102.762 267.428 103.592C267.94 105.065 267.79 104.643 267.465 106.319C265.848 106.284 266.135 106.517 264.91 105.745C264.348 104.592 264.627 103.717 264.815 102.41Z" fill="#A4A784"/>
<path d="M217.068 232.53C219.289 233.104 218.495 235.603 216.657 236.852C215.311 236.182 215.602 236.546 214.972 235.484C215.125 234.313 216.196 233.457 217.068 232.53Z" fill="#A4A784"/>
<path d="M215.294 197.068C217.421 198.655 216.727 200.769 215.717 202.723C213.672 201.051 214.132 199.009 215.294 197.068Z" fill="#A4A784"/>
<path d="M108.166 229.462C109.377 229.732 109.546 229.943 109.852 230.982C109.554 232.241 108.681 232.917 107.758 233.818C107.443 233.76 107.152 233.538 106.856 233.364L106.635 232.292C106.995 230.792 107.042 230.579 108.166 229.462Z" fill="#A4A784"/>
<path d="M214.383 180.409C215.569 180.641 215.925 180.601 216.705 181.472C216.874 182.91 216.828 182.484 216.043 183.949C214.566 184.123 215.006 184.259 213.867 183.757C213.525 182.242 213.857 182.121 214.383 180.409Z" fill="#A4A784"/>
<path d="M170.07 48.5435C172.199 49.9254 172.332 51.4183 172.594 53.7238C169.322 52.8701 169.669 51.6091 170.07 48.5435Z" fill="#A4A784"/>
<path d="M194.082 114.069C194.59 113.743 195.235 113.716 195.769 113.997C196.303 114.279 196.645 114.825 196.665 115.429C196.684 116.033 196.378 116.601 195.863 116.916C195.077 117.396 194.052 117.155 193.564 116.374C193.075 115.593 193.307 114.565 194.082 114.069Z" fill="#A4A784"/>
<path d="M144.138 181.605C146.197 181.318 146.288 180.982 147.969 181.651L148.402 182.393C147.944 183.447 148.265 183.112 147.165 183.621C145.779 183.552 145.119 183.062 144.07 182.139L144.138 181.605Z" fill="#A4A784"/>
<path d="M271.159 73.4814C272.384 73.6247 273.044 73.5557 273.926 74.3849C273.904 75.7028 273.715 75.5309 272.803 76.8042C272.426 76.8785 271.857 76.8978 271.457 76.9272L270.775 76.2466C270.553 75.0146 270.764 74.63 271.159 73.4814Z" fill="#A4A784"/>
<path d="M123.385 212.998C123.786 212.542 124.406 212.344 124.997 212.483C125.588 212.622 126.055 213.075 126.21 213.663C126.366 214.25 126.186 214.875 125.741 215.289C125.1 215.887 124.102 215.876 123.474 215.264C122.845 214.653 122.807 213.657 123.385 212.998Z" fill="#A4A784"/>
<path d="M186.268 76.793C189.787 77.494 190.056 77.9691 190.002 81.5525C188.248 80.8903 187.349 78.5867 186.268 76.793Z" fill="#A4A784"/>
<path d="M93.7031 13.5312C96.1175 13.7288 97.3396 15.227 98.0147 17.4031C95.5634 16.7462 93.9312 16.3722 93.7031 13.5312Z" fill="#A4A784"/>
<path d="M254.034 230.947C254.295 230.998 254.962 231.273 255.246 231.381L255.557 232.128C255.012 233.417 254.348 233.741 253.222 234.53C252.353 234.517 252.739 234.637 252.017 234.177C252.108 233 253.225 231.94 254.034 230.947Z" fill="#A4A784"/>
<path d="M20.2411 12.6592C21.038 13.3168 21.1002 13.4627 21.5604 14.3945C21.6633 15.7188 20.796 16.6272 20.0096 17.7128L19.5652 17.6242C19.117 16.626 19.9516 13.9888 20.2411 12.6592Z" fill="#A4A784"/>
<path d="M186.99 87.5796C187.351 87.7052 187.891 87.9944 188.252 88.1708C189.007 89.1758 188.714 90.3473 188.583 91.6155C188.035 91.8127 187.848 91.6803 187.274 91.5185C186.613 90.3881 186.903 88.9729 186.99 87.5796Z" fill="#A4A784"/>
<path d="M172.175 211.452C172.575 211.579 172.584 211.666 172.939 211.957C172.626 213.072 171.244 214.244 170.368 215.124L169.928 214.986L169.657 214.416C170.082 213.156 171.172 212.366 172.175 211.452Z" fill="#A4A784"/>
<path d="M159.456 114.632C161.115 115.567 161.829 117.288 162.464 118.985C160.389 118.865 159.704 116.318 159.456 114.632Z" fill="#A4A784"/>
<path d="M75.4082 188.321C76.864 188.222 78.0653 188.01 79.1702 188.793L79.0341 189.574C77.3348 189.586 76.634 189.872 75.332 189.166L75.4082 188.321Z" fill="#A4A784"/>
</svg>
